<svg xmlns="http://www.w3.org/2000/svg" xmlns:xlink="http://www.w3.org/1999/xlink" width="1400" zoomAndPan="magnify" viewBox="0 0 1050 449.999984" height="600" preserveAspectRatio="xMidYMid meet" version="1.0"><defs><g/><clipPath id="a5b3d86604"><path d="M 438.601562 181.234375 L 489.726562 181.234375 L 489.726562 268.765625 L 438.601562 268.765625 Z M 438.601562 181.234375 " clip-rule="nonzero"/></clipPath><clipPath id="d7910a8099"><path d="M 454 181 L 482 181 L 482 269 L 454 269 Z M 454 181 " clip-rule="nonzero"/></clipPath><clipPath id="1a98fef117"><path d="M 438.605469 194.246094 L 476.925781 181.136719 L 502.410156 255.648438 L 464.089844 268.757812 Z M 438.605469 194.246094 " clip-rule="nonzero"/></clipPath><clipPath id="81fb1935e9"><path d="M 438.605469 194.246094 L 476.925781 181.136719 L 502.410156 255.648438 L 464.089844 268.757812 Z M 438.605469 194.246094 " clip-rule="nonzero"/></clipPath><clipPath id="4551ee1b48"><path d="M 454 186 L 469 186 L 469 269 L 454 269 Z M 454 186 " clip-rule="nonzero"/></clipPath><clipPath id="a111cf433c"><path d="M 438.605469 194.246094 L 476.925781 181.136719 L 502.410156 255.648438 L 464.089844 268.757812 Z M 438.605469 194.246094 " clip-rule="nonzero"/></clipPath><clipPath id="673c2dc145"><path d="M 438.605469 194.246094 L 476.925781 181.136719 L 502.410156 255.648438 L 464.089844 268.757812 Z M 438.605469 194.246094 " clip-rule="nonzero"/></clipPath><clipPath id="de80af7f25"><path d="M 953.855469 251.066406 L 999.605469 251.066406 L 999.605469 296.816406 L 953.855469 296.816406 Z M 953.855469 251.066406 " clip-rule="nonzero"/></clipPath></defs><g fill="#000000" fill-opacity="1"><g transform="translate(58.890455, 283.093682)"><g><path d="M 103.609375 -120.6875 L 103.609375 0 L 74.171875 0 L 74.171875 -8.78125 C 68.421875 -1.945312 59.800781 1.46875 48.3125 1.46875 C 40.28125 1.46875 32.957031 -0.398438 26.34375 -4.140625 C 19.726562 -7.890625 14.492188 -13.234375 10.640625 -20.171875 C 6.796875 -27.109375 4.875 -35.132812 4.875 -44.25 C 4.875 -53.351562 6.796875 -61.347656 10.640625 -68.234375 C 14.492188 -75.117188 19.726562 -80.40625 26.34375 -84.09375 C 32.957031 -87.78125 40.28125 -89.625 48.3125 -89.625 C 58.832031 -89.625 66.960938 -86.585938 72.703125 -80.515625 L 72.703125 -120.6875 Z M 54.8125 -23.09375 C 60.125 -23.09375 64.515625 -24.960938 67.984375 -28.703125 C 71.460938 -32.453125 73.203125 -37.632812 73.203125 -44.25 C 73.203125 -50.75 71.492188 -55.84375 68.078125 -59.53125 C 64.660156 -63.21875 60.238281 -65.0625 54.8125 -65.0625 C 49.394531 -65.0625 44.945312 -63.21875 41.46875 -59.53125 C 38 -55.84375 36.265625 -50.75 36.265625 -44.25 C 36.265625 -37.632812 38 -32.453125 41.46875 -28.703125 C 44.945312 -24.960938 49.394531 -23.09375 54.8125 -23.09375 Z M 54.8125 -23.09375 "/></g></g></g><g fill="#000000" fill-opacity="1"><g transform="translate(155.837366, 283.093682)"><g><path d="M 67.34375 -89.625 C 78.289062 -89.625 87.097656 -86.367188 93.765625 -79.859375 C 100.441406 -73.359375 103.78125 -63.546875 103.78125 -50.421875 L 103.78125 0 L 72.875 0 L 72.875 -45.375 C 72.875 -57.414062 68.046875 -63.4375 58.390625 -63.4375 C 53.078125 -63.4375 48.820312 -61.703125 45.625 -58.234375 C 42.425781 -54.765625 40.828125 -49.554688 40.828125 -42.609375 L 40.828125 0 L 9.921875 0 L 9.921875 -120.6875 L 40.828125 -120.6875 L 40.828125 -80.03125 C 44.191406 -83.175781 48.148438 -85.5625 52.703125 -87.1875 C 57.253906 -88.8125 62.132812 -89.625 67.34375 -89.625 Z M 67.34375 -89.625 "/></g></g></g><g fill="#000000" fill-opacity="1"><g transform="translate(252.458952, 283.093682)"><g/></g></g><g fill="#000000" fill-opacity="1"><g transform="translate(283.202193, 283.093682)"><g><path d="M 41.96875 1.46875 C 34.59375 1.46875 27.328125 0.628906 20.171875 -1.046875 C 13.015625 -2.734375 7.265625 -4.929688 2.921875 -7.640625 L 12.203125 -28.796875 C 16.210938 -26.296875 20.984375 -24.3125 26.515625 -22.84375 C 32.046875 -21.382812 37.519531 -20.65625 42.9375 -20.65625 C 47.925781 -20.65625 51.476562 -21.171875 53.59375 -22.203125 C 55.707031 -23.234375 56.765625 -24.722656 56.765625 -26.671875 C 56.765625 -28.628906 55.488281 -30.015625 52.9375 -30.828125 C 50.394531 -31.640625 46.359375 -32.425781 40.828125 -33.1875 C 33.773438 -34.050781 27.78125 -35.1875 22.84375 -36.59375 C 17.914062 -38.007812 13.660156 -40.613281 10.078125 -44.40625 C 6.503906 -48.195312 4.71875 -53.507812 4.71875 -60.34375 C 4.71875 -65.976562 6.394531 -70.992188 9.75 -75.390625 C 13.113281 -79.785156 18.019531 -83.253906 24.46875 -85.796875 C 30.925781 -88.347656 38.65625 -89.625 47.65625 -89.625 C 54.050781 -89.625 60.394531 -88.972656 66.6875 -87.671875 C 72.976562 -86.367188 78.238281 -84.523438 82.46875 -82.140625 L 73.203125 -61.15625 C 65.390625 -65.5 56.929688 -67.671875 47.828125 -67.671875 C 42.941406 -67.671875 39.359375 -67.097656 37.078125 -65.953125 C 34.804688 -64.816406 33.671875 -63.328125 33.671875 -61.484375 C 33.671875 -59.421875 34.914062 -57.984375 37.40625 -57.171875 C 39.90625 -56.359375 44.023438 -55.519531 49.765625 -54.65625 C 57.035156 -53.570312 63.054688 -52.320312 67.828125 -50.90625 C 72.597656 -49.5 76.742188 -46.925781 80.265625 -43.1875 C 83.796875 -39.445312 85.5625 -34.210938 85.5625 -27.484375 C 85.5625 -21.953125 83.878906 -16.988281 80.515625 -12.59375 C 77.148438 -8.207031 72.1875 -4.765625 65.625 -2.265625 C 59.070312 0.222656 51.1875 1.46875 41.96875 1.46875 Z M 41.96875 1.46875 "/></g></g></g><g fill="#000000" fill-opacity="1"><g transform="translate(355.587048, 283.093682)"><g><path d="M 54.171875 1.46875 C 44.734375 1.46875 36.21875 -0.484375 28.625 -4.390625 C 21.03125 -8.296875 15.09375 -13.71875 10.8125 -20.65625 C 6.53125 -27.59375 4.390625 -35.457031 4.390625 -44.25 C 4.390625 -52.914062 6.53125 -60.71875 10.8125 -67.65625 C 15.09375 -74.601562 21 -80 28.53125 -83.84375 C 36.070312 -87.695312 44.617188 -89.625 54.171875 -89.625 C 63.710938 -89.625 72.273438 -87.695312 79.859375 -83.84375 C 87.453125 -80 93.363281 -74.632812 97.59375 -67.75 C 101.820312 -60.863281 103.9375 -53.03125 103.9375 -44.25 C 103.9375 -35.457031 101.820312 -27.59375 97.59375 -20.65625 C 93.363281 -13.71875 87.453125 -8.296875 79.859375 -4.390625 C 72.273438 -0.484375 63.710938 1.46875 54.171875 1.46875 Z M 54.171875 -23.09375 C 59.585938 -23.09375 64.03125 -24.960938 67.5 -28.703125 C 70.96875 -32.453125 72.703125 -37.632812 72.703125 -44.25 C 72.703125 -50.75 70.96875 -55.84375 67.5 -59.53125 C 64.03125 -63.21875 59.585938 -65.0625 54.171875 -65.0625 C 48.742188 -65.0625 44.296875 -63.21875 40.828125 -59.53125 C 37.359375 -55.84375 35.625 -50.75 35.625 -44.25 C 35.625 -37.632812 37.359375 -32.453125 40.828125 -28.703125 C 44.296875 -24.960938 48.742188 -23.09375 54.171875 -23.09375 Z M 54.171875 -23.09375 "/></g></g></g><g fill="#000000" fill-opacity="1"><g transform="translate(447.328741, 283.093682)"><g><path d="M 9.921875 -120.6875 L 40.828125 -120.6875 L 40.828125 0 L 9.921875 0 Z M 9.921875 -120.6875 "/></g></g></g><g fill="#000000" fill-opacity="1"><g transform="translate(481.650552, 283.093682)"><g><path d="M 102.640625 -88.15625 L 102.640625 0 L 73.203125 0 L 73.203125 -9.4375 C 69.941406 -5.851562 66.035156 -3.140625 61.484375 -1.296875 C 56.929688 0.546875 52.101562 1.46875 47 1.46875 C 35.613281 1.46875 26.53125 -1.890625 19.75 -8.609375 C 12.976562 -15.335938 9.59375 -25.425781 9.59375 -38.875 L 9.59375 -88.15625 L 40.5 -88.15625 L 40.5 -43.921875 C 40.5 -37.304688 41.742188 -32.476562 44.234375 -29.4375 C 46.734375 -26.40625 50.367188 -24.890625 55.140625 -24.890625 C 60.015625 -24.890625 64 -26.597656 67.09375 -30.015625 C 70.1875 -33.429688 71.734375 -38.660156 71.734375 -45.703125 L 71.734375 -88.15625 Z M 102.640625 -88.15625 "/></g></g></g><g fill="#000000" fill-opacity="1"><g transform="translate(577.621509, 283.093682)"><g><path d="M 70.75 -3.578125 C 68.15625 -1.953125 64.984375 -0.707031 61.234375 0.15625 C 57.492188 1.03125 53.507812 1.46875 49.28125 1.46875 C 37.789062 1.46875 28.953125 -1.347656 22.765625 -6.984375 C 16.585938 -12.628906 13.5 -21.035156 13.5 -32.203125 L 13.5 -61.8125 L 0.65625 -61.8125 L 0.65625 -84.90625 L 13.5 -84.90625 L 13.5 -107.84375 L 44.40625 -107.84375 L 44.40625 -84.90625 L 64.578125 -84.90625 L 64.578125 -61.8125 L 44.40625 -61.8125 L 44.40625 -32.53125 C 44.40625 -29.382812 45.242188 -26.914062 46.921875 -25.125 C 48.609375 -23.34375 50.859375 -22.453125 53.671875 -22.453125 C 57.253906 -22.453125 60.398438 -23.375 63.109375 -25.21875 Z M 70.75 -3.578125 "/></g></g></g><g fill="#000000" fill-opacity="1"><g transform="translate(633.740097, 283.093682)"><g><path d="M 9.921875 -88.15625 L 40.828125 -88.15625 L 40.828125 0 L 9.921875 0 Z M 25.375 -97.921875 C 19.738281 -97.921875 15.179688 -99.492188 11.703125 -102.640625 C 8.234375 -105.785156 6.5 -109.6875 6.5 -114.34375 C 6.5 -119.007812 8.234375 -122.914062 11.703125 -126.0625 C 15.179688 -129.207031 19.738281 -130.78125 25.375 -130.78125 C 31.007812 -130.78125 35.5625 -129.285156 39.03125 -126.296875 C 42.507812 -123.316406 44.25 -119.492188 44.25 -114.828125 C 44.25 -109.953125 42.507812 -105.914062 39.03125 -102.71875 C 35.5625 -99.519531 31.007812 -97.921875 25.375 -97.921875 Z M 25.375 -97.921875 "/></g></g></g><g fill="#000000" fill-opacity="1"><g transform="translate(668.061909, 283.093682)"><g><path d="M 54.171875 1.46875 C 44.734375 1.46875 36.21875 -0.484375 28.625 -4.390625 C 21.03125 -8.296875 15.09375 -13.71875 10.8125 -20.65625 C 6.53125 -27.59375 4.390625 -35.457031 4.390625 -44.25 C 4.390625 -52.914062 6.53125 -60.71875 10.8125 -67.65625 C 15.09375 -74.601562 21 -80 28.53125 -83.84375 C 36.070312 -87.695312 44.617188 -89.625 54.171875 -89.625 C 63.710938 -89.625 72.273438 -87.695312 79.859375 -83.84375 C 87.453125 -80 93.363281 -74.632812 97.59375 -67.75 C 101.820312 -60.863281 103.9375 -53.03125 103.9375 -44.25 C 103.9375 -35.457031 101.820312 -27.59375 97.59375 -20.65625 C 93.363281 -13.71875 87.453125 -8.296875 79.859375 -4.390625 C 72.273438 -0.484375 63.710938 1.46875 54.171875 1.46875 Z M 54.171875 -23.09375 C 59.585938 -23.09375 64.03125 -24.960938 67.5 -28.703125 C 70.96875 -32.453125 72.703125 -37.632812 72.703125 -44.25 C 72.703125 -50.75 70.96875 -55.84375 67.5 -59.53125 C 64.03125 -63.21875 59.585938 -65.0625 54.171875 -65.0625 C 48.742188 -65.0625 44.296875 -63.21875 40.828125 -59.53125 C 37.359375 -55.84375 35.625 -50.75 35.625 -44.25 C 35.625 -37.632812 37.359375 -32.453125 40.828125 -28.703125 C 44.296875 -24.960938 48.742188 -23.09375 54.171875 -23.09375 Z M 54.171875 -23.09375 "/></g></g></g><g fill="#000000" fill-opacity="1"><g transform="translate(759.803602, 283.093682)"><g><path d="M 67.34375 -89.625 C 78.289062 -89.625 87.097656 -86.367188 93.765625 -79.859375 C 100.441406 -73.359375 103.78125 -63.546875 103.78125 -50.421875 L 103.78125 0 L 72.875 0 L 72.875 -45.375 C 72.875 -57.414062 68.046875 -63.4375 58.390625 -63.4375 C 53.078125 -63.4375 48.820312 -61.703125 45.625 -58.234375 C 42.425781 -54.765625 40.828125 -49.554688 40.828125 -42.609375 L 40.828125 0 L 9.921875 0 L 9.921875 -88.15625 L 39.359375 -88.15625 L 39.359375 -78.5625 C 42.828125 -82.144531 46.945312 -84.882812 51.71875 -86.78125 C 56.488281 -88.675781 61.695312 -89.625 67.34375 -89.625 Z M 67.34375 -89.625 "/></g></g></g><g fill="#000000" fill-opacity="1"><g transform="translate(856.425203, 283.093682)"><g><path d="M 41.96875 1.46875 C 34.59375 1.46875 27.328125 0.628906 20.171875 -1.046875 C 13.015625 -2.734375 7.265625 -4.929688 2.921875 -7.640625 L 12.203125 -28.796875 C 16.210938 -26.296875 20.984375 -24.3125 26.515625 -22.84375 C 32.046875 -21.382812 37.519531 -20.65625 42.9375 -20.65625 C 47.925781 -20.65625 51.476562 -21.171875 53.59375 -22.203125 C 55.707031 -23.234375 56.765625 -24.722656 56.765625 -26.671875 C 56.765625 -28.628906 55.488281 -30.015625 52.9375 -30.828125 C 50.394531 -31.640625 46.359375 -32.425781 40.828125 -33.1875 C 33.773438 -34.050781 27.78125 -35.1875 22.84375 -36.59375 C 17.914062 -38.007812 13.660156 -40.613281 10.078125 -44.40625 C 6.503906 -48.195312 4.71875 -53.507812 4.71875 -60.34375 C 4.71875 -65.976562 6.394531 -70.992188 9.75 -75.390625 C 13.113281 -79.785156 18.019531 -83.253906 24.46875 -85.796875 C 30.925781 -88.347656 38.65625 -89.625 47.65625 -89.625 C 54.050781 -89.625 60.394531 -88.972656 66.6875 -87.671875 C 72.976562 -86.367188 78.238281 -84.523438 82.46875 -82.140625 L 73.203125 -61.15625 C 65.390625 -65.5 56.929688 -67.671875 47.828125 -67.671875 C 42.941406 -67.671875 39.359375 -67.097656 37.078125 -65.953125 C 34.804688 -64.816406 33.671875 -63.328125 33.671875 -61.484375 C 33.671875 -59.421875 34.914062 -57.984375 37.40625 -57.171875 C 39.90625 -56.359375 44.023438 -55.519531 49.765625 -54.65625 C 57.035156 -53.570312 63.054688 -52.320312 67.828125 -50.90625 C 72.597656 -49.5 76.742188 -46.925781 80.265625 -43.1875 C 83.796875 -39.445312 85.5625 -34.210938 85.5625 -27.484375 C 85.5625 -21.953125 83.878906 -16.988281 80.515625 -12.59375 C 77.148438 -8.207031 72.1875 -4.765625 65.625 -2.265625 C 59.070312 0.222656 51.1875 1.46875 41.96875 1.46875 Z M 41.96875 1.46875 "/></g></g></g><g clip-path="url(#a5b3d86604)"><path fill="#000000" d="M 438.601562 181.234375 L 489.726562 181.234375 L 489.726562 268.703125 L 438.601562 268.703125 Z M 438.601562 181.234375 " fill-opacity="1" fill-rule="nonzero"/></g><g clip-path="url(#d7910a8099)"><g clip-path="url(#1a98fef117)"><g clip-path="url(#81fb1935e9)"><path fill="#ff3131" d="M 457.457031 187.796875 L 476.628906 181.238281 L 470.238281 212.203125 L 481.476562 208.359375 L 464.171875 268.953125 L 466.394531 225.789062 L 454.371094 230.578125 Z M 457.457031 187.796875 " fill-opacity="1" fill-rule="nonzero"/></g></g></g><g clip-path="url(#4551ee1b48)"><g clip-path="url(#a111cf433c)"><g clip-path="url(#673c2dc145)"><path fill="#000000" d="M 457.457031 187.796875 L 460.765625 186.667969 L 454.371094 230.578125 Z M 464.171875 268.953125 L 468.707031 224.996094 L 466.394531 225.789062 Z M 464.171875 268.953125 " fill-opacity="1" fill-rule="nonzero"/></g></g></g><g clip-path="url(#de80af7f25)"><path fill="#000000" d="M 976.730469 251.066406 C 989.367188 251.066406 999.605469 261.304688 999.605469 273.941406 C 999.605469 286.574219 989.367188 296.816406 976.730469 296.816406 C 964.097656 296.816406 953.855469 286.574219 953.855469 273.941406 C 953.855469 261.304688 964.097656 251.066406 976.730469 251.066406 Z M 976.730469 251.066406 " fill-opacity="1" fill-rule="evenodd"/></g></svg>